<svg width="331" height="287" viewBox="0 0 331 287" fill="none" xmlns="http://www.w3.org/2000/svg">
<path d="M247.753 285.918H83.2554L1.00391 143.455L83.2554 0.987305H247.753L330.01 143.455L247.753 285.918Z" fill="#FFE975"/>
<path d="M247.749 286.913H83.2458C82.8923 286.913 82.5608 286.726 82.384 286.416L0.132575 143.954C-0.0441915 143.645 -0.0441915 143.269 0.132575 142.96L82.384 0.497155C82.5608 0.187815 82.8867 0 83.2458 0H247.749C248.102 0 248.434 0.187815 248.61 0.497155L330.862 142.96C331.039 143.269 331.039 143.645 330.862 143.954L248.61 286.416C248.434 286.72 248.108 286.913 247.749 286.913ZM83.8203 284.925H247.174L328.851 143.457L247.174 1.98862H83.8203L2.14328 143.457L83.8203 284.925Z" fill="#EBA820"/>
<path d="M240.232 273.261H90.3398L15.3965 143.454L90.3398 13.647H240.232L315.175 143.454L240.232 273.261Z" fill="#FBB415"/>
<path d="M240.234 274.257H90.3419C89.9884 274.257 89.6569 274.069 89.4802 273.76L14.5369 143.953C14.3601 143.643 14.3601 143.268 14.5369 142.959L89.4802 13.1515C89.6569 12.8421 89.9828 12.6543 90.3419 12.6543H240.234C240.588 12.6543 240.919 12.8421 241.096 13.1515L316.039 142.959C316.216 143.268 316.216 143.643 316.039 143.953L241.09 273.76C240.913 274.064 240.588 274.257 240.234 274.257ZM90.9164 272.268H239.66L314.028 143.456L239.66 14.6374H90.9164L16.5476 143.456L90.9164 272.268Z" fill="#EBA820"/>
<path opacity="0.38" d="M240.232 13.6475H90.3398L15.3965 143.455L90.3398 273.262H240.226L315.17 143.455L240.232 13.6475ZM272.945 163.446C267.443 174.361 259.571 184.365 249.838 192.866C240.806 200.754 229.775 206.847 217.921 211.184C205.702 215.652 192.621 218.315 179.408 219.425C165.94 220.558 152.28 220.083 138.961 218.044C125.942 216.05 113.187 212.542 101.454 207.311C88.898 201.716 77.7839 194.021 68.7025 184.746C58.5992 174.427 51.0093 162.241 47.1039 149.199C45.1595 142.709 44.1431 136.008 44.1817 129.308C44.2259 122.154 45.7284 115.122 48.043 108.261C50.4183 101.218 53.6995 94.4019 57.6933 87.9113C58.9362 85.8896 60.2564 83.9065 61.6319 81.951C65.7693 73.2453 71.1496 64.9593 77.9275 57.5517C86.2079 48.509 96.615 40.9357 108.784 35.9697C121.23 30.8932 134.863 28.0705 148.562 26.916C162.974 25.7062 177.629 26.3415 191.82 28.8051C205.475 31.1749 218.865 35.2682 230.725 41.5654C242.237 47.6804 252.169 56.0492 260.124 65.3792C268.095 74.7312 274.077 85.293 277.795 96.4071C281.457 107.361 282.932 118.845 282.136 130.214C281.336 141.643 278.242 152.934 272.945 163.446Z" fill="#F7981C"/>
<path opacity="0.63" d="M164.506 246.271C161.948 244.056 158.954 242.256 155.96 240.703C152.651 238.985 149.188 237.593 145.658 236.411C138.576 234.041 131.263 232.5 124.065 230.545C116.917 228.6 109.99 226.109 103.46 222.585C97.3013 219.265 91.584 215.188 86.2645 210.653C80.7571 205.958 75.6088 200.804 70.7809 195.413C65.4724 189.485 60.7826 183.039 56.4352 176.388C52.0989 169.759 48.083 162.926 44.0119 156.137C42.3934 153.442 40.8522 150.663 39.0348 148.094C37.5875 146.051 35.9303 144.007 33.8699 142.543C32.0083 141.223 29.6441 140.582 27.661 142.057C25.9431 143.333 25.6558 145.36 26.1309 147.343C26.6888 149.669 27.9648 151.84 29.2629 153.823C30.4285 155.607 31.7266 157.303 33.0745 158.949C40.8135 168.4 47.9449 178.305 54.0931 188.839C56.0154 192.546 58.0316 196.208 60.0368 199.87C60.2688 200.296 60.5064 200.727 60.7384 201.152C61.694 203.03 62.622 204.919 63.4727 206.831C63.5721 207.051 63.771 207.123 63.9864 207.101C64.6714 208.372 65.3508 209.642 66.0137 210.924C67.8974 214.559 69.6706 218.254 71.4603 221.938C75.0233 229.274 78.658 236.599 83.2208 243.377C87.1207 249.166 91.8271 254.695 97.7985 258.424C100.759 260.275 103.985 261.556 107.405 262.241C111.056 262.97 114.796 263.202 118.513 263.313C122.452 263.429 126.39 263.418 130.329 263.578C134.676 263.755 139.029 263.992 143.382 263.959C149.751 263.915 156.844 263.501 162.478 260.192C164.936 258.75 167.4 256.375 167.958 253.469C168.527 250.536 166.588 248.078 164.506 246.271Z" fill="#FEF59B"/>
<path opacity="0.63" d="M207.929 244.228C206.841 243.272 205.554 242.527 204.195 242.019C201.4 240.98 198.334 240.875 195.374 241.195C188.651 241.925 170.632 249.227 180.348 258.016C182.508 259.971 185.441 260.844 188.331 261.258C192.595 261.877 196.981 261.623 201.146 260.513C204.107 259.728 207.051 258.436 209.051 256.116C212.199 252.453 211.459 247.316 207.929 244.228Z" fill="#FEF59B"/>
<path opacity="0.63" d="M103.595 248.666C103.159 246.545 101.872 244.722 100.391 243.186C98.8556 241.59 97.1101 240.225 95.4032 238.817C93.5637 237.297 91.901 235.635 90.4206 233.762C87.0841 229.558 84.4934 224.747 81.9689 220.024C80.5548 217.378 79.207 214.699 77.8867 212.003C77.0195 210.23 76.2848 208.38 75.2463 206.7C74.2188 205.043 72.7661 203.43 70.7443 203.099C69.7279 202.933 68.6618 203.204 68.0486 204.088C67.5625 204.784 67.5349 205.634 67.6509 206.446C67.9768 208.755 69.4738 210.633 70.9266 212.362C72.2192 213.909 73.4289 215.522 74.6276 217.141C75.296 218.124 75.9423 219.118 76.5444 220.146C79.5274 225.217 82.3998 230.354 85.0789 235.591C87.4818 240.286 89.6085 245.208 92.9561 249.334C94.2652 250.947 95.7291 252.615 97.6901 253.422C99.1263 254.013 100.888 254.074 102.198 253.151C103.673 252.118 103.932 250.312 103.595 248.666Z" fill="#FEF59B"/>
</svg>
